<svg width="16" height="15" viewBox="0 0 16 15" fill="none" xmlns="http://www.w3.org/2000/svg">
<g id="calendar">
<path id="Shape" fill-rule="evenodd" clip-rule="evenodd" d="M0.56503 15H15.435C15.7519 15 16 14.7484 16 14.4268V1.6356C16 1.31407 15.7519 1.06244 15.435 1.06244H12.6374V0.573159C12.6374 0.251631 12.3893 0 12.0724 0C11.7554 0 11.5073 0.251631 11.5073 0.573159V1.06244H4.58915V0.573159C4.58915 0.251631 4.34108 0 4.02412 0C3.70715 0 3.45909 0.251631 3.45909 0.573159V1.06244H0.56503C0.248062 1.06244 0 1.31407 0 1.6356V14.4408C0 14.7484 0.261843 15 0.56503 15ZM1.13006 2.20876H3.45909V2.51631C3.45909 2.83784 3.70715 3.08947 4.02412 3.08947C4.34109 3.08947 4.58915 2.83784 4.58915 2.51631V2.20876H11.5073V2.51631C11.5073 2.83784 11.7554 3.08947 12.0724 3.08947C12.3893 3.08947 12.6374 2.83784 12.6374 2.51631V2.20876H14.8837V3.69059H1.13006V2.20876ZM14.8699 4.83691H1.13006V13.8677H14.8699V4.83691Z" fill="white"/>
<path id="Shape_2" d="M11.4509 7H3.54911C3.24107 7 3 7.21951 3 7.5C3 7.78049 3.24107 8 3.54911 8H11.4509C11.7589 8 12 7.78049 12 7.5C12 7.21951 11.7589 7 11.4509 7Z" fill="white"/>
<path id="Shape_3" d="M7.45623 10H3.54377C3.23873 10 3 10.2195 3 10.5C3 10.7805 3.23873 11 3.54377 11H7.45623C7.76127 11 8 10.7805 8 10.5C8 10.2195 7.76127 10 7.45623 10Z" fill="white"/>
</g>
</svg>
