<svg width="13" height="16" viewBox="0 0 13 16" fill="none" xmlns="http://www.w3.org/2000/svg">
<path id="phone icon" d="M7.51488 10.805C7.90631 10.805 8.66121 10.0221 9.05264 9.98016C9.44148 9.94731 9.82776 10.0677 10.1291 10.3157L11.1636 11.1544L11.7926 11.6717C12.2458 12.0418 12.3203 12.7062 11.9604 13.1675L10.7861 14.8171C10.7017 14.9407 10.5579 15.0099 10.4087 14.9988C5.02269 14.4171 0.954682 9.84736 1.00038 4.43025C0.998296 3.46245 1.12523 2.49869 1.37783 1.56443C1.40565 1.47307 1.48038 1.40368 1.57355 1.38269L3.79631 1.01922C4.06543 0.966242 4.34456 1.02383 4.57074 1.179C4.79692 1.33417 4.95111 1.57386 4.99855 1.84402L5.19427 2.6828L5.4459 4.08076C5.52046 4.47565 5.44573 4.88416 5.23621 5.22709C5.02651 5.57658 4.03396 5.92607 3.83824 6.26158C4.39786 8.23839 5.70699 9.91869 7.48692 10.9448V10.805H7.51488Z" fill="#74CFB7" stroke="white"/>
</svg>
